<?xml version="1.0" encoding="utf-8"?><svg viewBox="0 0 92 34" xmlns="http://www.w3.org/2000/svg" xmlns:xlink="http://www.w3.org/1999/xlink"><style>:root>svg{display:none}:root>svg:target{display:block}</style><svg viewBox="0 0 14 20" id="icon" xmlns="http://www.w3.org/2000/svg"><path d="M6.83.615A6.525 6.525 0 0 0 .313 7.133c0 4.516 6.524 12.232 6.524 12.232s6.51-7.938 6.51-12.232A6.525 6.525 0 0 0 6.83.615zm1.967 8.426a2.773 2.773 0 0 1-1.967.813 2.772 2.772 0 0 1-1.966-.813 2.784 2.784 0 0 1 0-3.933 2.762 2.762 0 0 1 1.966-.814c.743 0 1.442.289 1.967.814a2.784 2.784 0 0 1 0 3.933z"/></svg><svg viewBox="0 0 34 34" id="left-arrow" xmlns="http://www.w3.org/2000/svg"><g clip-path="url(#ba)"><path d="M32.672 15.672H4.545l4.66-4.637A1.328 1.328 0 1 0 7.33 9.152L.39 16.06a1.33 1.33 0 0 0 0 1.881v.001l6.94 6.907a1.328 1.328 0 0 0 1.874-1.883l-4.66-4.637h28.128a1.328 1.328 0 1 0 0-2.656z"/></g><defs><clipPath id="ba"><path fill="#fff" d="M0 0h34v34H0z"/></clipPath></defs></svg><svg viewBox="0 0 92 28" id="logo" xmlns="http://www.w3.org/2000/svg"><path d="M18.213 27H.402V1.133H5.87v21.063h12.342V27z"/><path d="M16.258 14.067c0-2.119.271-4.016.813-5.691.542-1.675 1.318-3.08 2.328-4.213a9.92 9.92 0 0 1 3.77-2.623c1.477-.616 3.153-.924 5.025-.924 1.995 0 3.732.333 5.21.998 1.503.64 2.747 1.552 3.732 2.734 1.01 1.183 1.762 2.6 2.254 4.25.518 1.65.776 3.473.776 5.469 0 2.118-.283 4.015-.85 5.69-.541 1.675-1.33 3.092-2.364 4.25-1.035 1.133-2.291 2.008-3.77 2.623-1.478.592-3.14.887-4.988.887-1.996 0-3.745-.32-5.247-.96-1.479-.666-2.723-1.59-3.733-2.772-.985-1.182-1.724-2.599-2.217-4.25-.492-1.65-.739-3.473-.739-5.468zm5.802 0c0 1.28.123 2.45.37 3.51.246 1.06.615 1.97 1.108 2.735a5.191 5.191 0 0 0 1.884 1.773c.789.42 1.713.628 2.772.628 1.946 0 3.461-.665 4.545-1.995s1.626-3.547 1.626-6.651c0-1.232-.11-2.378-.333-3.437-.221-1.06-.59-1.97-1.108-2.734a5.014 5.014 0 0 0-1.922-1.811c-.763-.444-1.7-.665-2.808-.665-1.922 0-3.424.69-4.508 2.07-1.084 1.379-1.626 3.571-1.626 6.577zm31.8-.665h10.568v11.603a9.608 9.608 0 0 1-1.885 1.145c-.665.296-1.38.554-2.143.776-.739.197-1.503.345-2.29.444-.79.098-1.565.147-2.329.147-1.774 0-3.436-.258-4.988-.776a10.973 10.973 0 0 1-4.028-2.402c-1.133-1.108-2.033-2.512-2.698-4.212-.64-1.7-.96-3.72-.96-6.06 0-2.44.394-4.509 1.182-6.208.788-1.725 1.81-3.117 3.067-4.176a11.8 11.8 0 0 1 4.25-2.328 15.667 15.667 0 0 1 4.692-.739c1.602 0 3.006.123 4.213.37 1.232.221 2.192.443 2.882.665l-1.145 4.545a15.887 15.887 0 0 0-2.254-.555c-.838-.147-1.885-.221-3.141-.221-1.158 0-2.217.16-3.178.48a6.184 6.184 0 0 0-2.513 1.478c-.714.69-1.269 1.59-1.663 2.698-.394 1.108-.591 2.451-.591 4.028 0 1.527.197 2.833.591 3.916.394 1.085.924 1.984 1.59 2.698a6.376 6.376 0 0 0 2.364 1.515 8.21 8.21 0 0 0 2.808.48c.666 0 1.33-.073 1.996-.221.69-.148 1.269-.382 1.737-.702v-4.472l-6.134-.59V13.4zm13.677.665c0-2.119.27-4.016.813-5.691.542-1.675 1.318-3.08 2.328-4.213a9.92 9.92 0 0 1 3.769-2.623C75.925.924 77.6.616 79.472.616c1.996 0 3.733.333 5.21.998 1.504.64 2.748 1.552 3.733 2.734 1.01 1.183 1.761 2.6 2.254 4.25.517 1.65.776 3.473.776 5.469 0 2.118-.283 4.015-.85 5.69-.542 1.675-1.33 3.092-2.365 4.25-1.035 1.133-2.29 2.008-3.769 2.623-1.478.592-3.14.887-4.989.887-1.995 0-3.744-.32-5.247-.96-1.478-.666-2.722-1.59-3.732-2.772-.985-1.182-1.724-2.599-2.217-4.25-.493-1.65-.74-3.473-.74-5.468zm5.801 0c0 1.28.124 2.45.37 3.51.246 1.06.616 1.97 1.109 2.735a5.191 5.191 0 0 0 1.884 1.773c.788.42 1.712.628 2.772.628 1.946 0 3.46-.665 4.545-1.995 1.084-1.33 1.626-3.547 1.626-6.651 0-1.232-.111-2.378-.333-3.437-.222-1.06-.591-1.97-1.109-2.734a5.014 5.014 0 0 0-1.921-1.811c-.764-.444-1.7-.665-2.809-.665-1.921 0-3.424.69-4.508 2.07-1.084 1.379-1.626 3.571-1.626 6.577z"/></svg><svg viewBox="0 0 34 34" id="right-arrow" xmlns="http://www.w3.org/2000/svg"><g clip-path="url(#da)"><path d="M1.328 15.672h28.127l-4.66-4.637a1.328 1.328 0 0 1 1.875-1.883l6.94 6.907a1.33 1.33 0 0 1 0 1.881v.001l-6.94 6.907a1.328 1.328 0 0 1-1.874-1.883l4.66-4.637H1.327a1.328 1.328 0 1 1 0-2.656z"/></g><defs><clipPath id="da"><path fill="#fff" transform="matrix(-1 0 0 1 34 0)" d="M0 0h34v34H0z"/></clipPath></defs></svg><svg fill="none" viewBox="0 0 28 28" id="whatsapp_1" xmlns="http://www.w3.org/2000/svg"><g clip-path="url(#ea)"><path d="M23.94 4.024C21.28 1.452 17.78 0 14.052 0 3.354 0-3.364 11.59 1.98 20.811L0 28l7.39-1.927c3.22 1.74 5.859 1.585 6.67 1.688 12.405 0 18.58-15.008 9.862-23.692l.018-.045z" fill="#ECEFF1"/><path d="m14.078 25.376-.007-.001h-.018c-3.713 0-6.085-1.758-6.318-1.86L3.36 24.653 4.532 20.4l-.278-.437a11.513 11.513 0 0 1-1.769-6.137c0-10.258 12.536-15.388 19.79-8.137 7.237 7.175 2.156 19.687-8.197 19.687z" fill="#1FA181"/><path d="m20.425 16.692-.01.087c-.352-.175-2.062-1.011-2.38-1.127-.716-.265-.514-.042-1.887 1.53-.204.228-.407.246-.754.088-.35-.175-1.473-.542-2.803-1.732-1.036-.928-1.732-2.065-1.937-2.415-.342-.59.373-.675 1.024-1.907.117-.245.057-.437-.029-.611-.087-.175-.784-1.89-1.075-2.574-.28-.681-.569-.595-.785-.595-.672-.058-1.163-.049-1.596.402-1.883 2.07-1.408 4.204.203 6.475 3.167 4.144 4.854 4.907 7.938 5.966.834.265 1.593.227 2.194.141.67-.106 2.061-.841 2.352-1.664.297-.822.297-1.505.21-1.662-.087-.158-.315-.245-.665-.402z" fill="#FAFAFA"/></g><defs><clipPath id="ea"><path fill="#fff" d="M0 0h28v28H0z"/></clipPath></defs></svg></svg>